# xmcd CD database file
# Copyright (C) 1993-1998 Ti Kan
#
# Track frame offsets:
#  150
#  11907
#  21805
#  33117
#  44047
#  54497
#  64787
#  73352
#  82957
#  93612
#  103845
#  113875
#  122675
#  132227
#  141122
#  150262
#  159077
#  168907
#  180542
#  187900
#  198365
#  206257
#  215582
#  226292
#  236992
#
# Disc length: 3292 seconds
#
# Revision: 1
# Processed by: cddbd v1.4b41PL1 Copyright (c) Steve Scherf et al.
# Submitted via: CDWizzard Release:4.35
#
DISCID=580cda19
DTITLE=Fats Domino - The Fat Man - Antoine "Fats" Domino
DYEAR=1900
DGENRE=
TTITLE0=The Fat Man
TTITLE1=Goin' Home
TTITLE2=Going To The River
TTITLE3=Ain't That A Shame
TTITLE4=All Bt Myself
TTITLE5=Poor Me
TTITLE6=I'm In Love Again
TTITLE7=My Blue Heaven
TTITLE8=Blueberry Hill
TTITLE9=Blue Monday
TTITLE10=I'm Walkin
TTITLE11=Valley Of Tears
TTITLE12=It's You I Love
TTITLE13=Wait And See
TTITLE14=The Big Beat
TTITLE15=Yes, My Darling
TTITLE16=Don't You Know I Love You
TTITLE17=Sick And Tired
TTITLE18=Whole Lot Of Lovin'
TTITLE19=I Want To Walk You Home
TTITLE20=Three Nights A Week
TTITLE21=My Girl Josephine
TTITLE22=What A Price
TTITLE23=Jambalaya (On The Bayou)
TTITLE24=You Win Again
EXTD=
EXTT0=
EXTT1=
EXTT2=
EXTT3=
EXTT4=
EXTT5=
EXTT6=
EXTT7=
EXTT8=
EXTT9=
EXTT10=
EXTT11=
EXTT12=
EXTT13=
EXTT14=
EXTT15=
EXTT16=
EXTT17=
EXTT18=
EXTT19=
EXTT20=
EXTT21=
EXTT22=
EXTT23=
EXTT24=
PLAYORDER=
